<!-- source: https://us.expensereduction.com/clients-home/attachment/people-network-icon/ -->
<svg xmlns="http://www.w3.org/2000/svg" data-name="Layer 1" viewBox="0 0 197.74933 197.74431" stroke="#000">
    <path fill="none" stroke-miterlimit="10" stroke-width="3" d="M105.105 79.34l27.414-18.969m.446 79.452l-27.738-19.192"/>
    <path fill="none" stroke-miterlimit="10" stroke-width="3" d="M98.258 70.03a42.297 42.297 0 0 0-60.168 59.464v-12.18c.008-4.168 3.288-9.015 7.449-10.288a76.96 76.96 0 0 1 44.004 0c4.167 1.273 7.443 6.11 7.448 10.287v13.685c.442-.41.91-.789 1.34-1.22a42.22 42.22 0 0 0-.073-59.747zm-30.717 33.274a14.96 14.96 0 1 1 14.963-14.963 14.963 14.963 0 0 1-14.963 14.963z"/>
    <path fill="none" stroke-miterlimit="10" stroke-width="3" d="M89.543 107.026a76.96 76.96 0 0 0-44.004 0c-4.161 1.273-7.441 6.12-7.45 10.287v12.18a42.393 42.393 0 0 0 13.535 9.322 42.11 42.11 0 0 0 31.839.625 42.103 42.103 0 0 0 13.528-8.442v-13.685c-.005-4.178-3.28-9.014-7.448-10.287z"/>
    <path fill="none" stroke-miterlimit="10" stroke-width="3" d="M67.541 73.384a14.96 14.96 0 1 0 14.963 14.957A14.958 14.958 0 0 0 67.54 73.384z"/>
    <path fill="none" stroke-miterlimit="10" stroke-width="3" d="M169.112 48.994a19.968 19.968 0 1 1-19.967-19.966 19.969 19.969 0 0 1 19.967 19.966z"/>
    <path fill="none"  stroke-miterlimit="10" stroke-width="3" d="M156.647 46.454a7.502 7.502 0 1 1-7.502-7.503 7.502 7.502 0 0 1 7.502 7.503z"/>
    <path fill="none"  stroke-miterlimit="10" stroke-width="3" d="M154.59 54.924H143.7a7.261 7.261 0 0 0-7.261 7.26v2.213a19.965 19.965 0 0 0 25.413 0v-2.212a7.26 7.26 0 0 0-7.26-7.261z"/>
    <circle cx="149.145" cy="150.889" r="19.968" fill="none" stroke-miterlimit="10" stroke-width="3"/>
    <path fill="none" stroke-miterlimit="10" stroke-width="3" d="M156.647 148.348a7.502 7.502 0 1 1-7.502-7.502 7.501 7.501 0 0 1 7.502 7.502z"/>
    <path fill="none" stroke-miterlimit="10" stroke-width="3" d="M154.59 156.82H143.7a7.26 7.26 0 0 0-7.261 7.26v2.212a19.967 19.967 0 0 0 25.413 0v-2.211a7.26 7.26 0 0 0-7.26-7.261z"/>
</svg>